<svg width="16" height="18" viewBox="0 0 16 18" fill="none" xmlns="http://www.w3.org/2000/svg">
<path d="M15.6764 4.3755C15.6764 4.2931 15.6764 4.2931 15.5865 4.2931C15.3843 4.2931 15.182 4.27063 14.9798 4.24066C14.2532 4.1283 11.8786 2.88482 11.4816 0.854798C11.4741 0.817344 11.3842 0.307967 11.3842 0.0982229C11.3842 0.000841845 11.3842 0.000841844 11.2868 0.000841844C11.2643 0.000841844 11.2419 0.000841844 11.2194 0.000841844C10.2905 0.000841844 9.36913 0.000841844 8.44027 0.000841844C8.253 0.000841844 8.28296 -0.0216307 8.28296 0.165641C8.28296 4.18074 8.28296 8.20332 8.28296 12.2184C8.28296 12.3682 8.28296 12.518 8.253 12.6679C8.11067 13.4469 7.71366 14.0537 7.03948 14.4732C6.4552 14.8327 5.81847 14.9376 5.15179 14.8028C4.94204 14.7578 4.73979 14.6829 4.53753 14.6005C4.52255 14.5855 4.50757 14.5705 4.49259 14.5556C4.42517 14.5031 4.35026 14.4507 4.28285 14.4057C3.4214 13.814 3.01689 12.99 3.14423 11.9562C3.27158 10.9075 3.87085 10.2034 4.86713 9.83633C5.15928 9.72396 5.4739 9.67902 5.78851 9.70149C5.99077 9.70898 6.19302 9.73894 6.39527 9.79138C6.46269 9.81385 6.50014 9.79138 6.50763 9.71647C6.50763 9.694 6.50763 9.66404 6.50763 9.64156C6.50763 8.92244 6.47767 7.34187 6.47767 7.34187C6.47767 7.13213 6.47767 6.92988 6.47767 6.72013C6.47767 6.66021 6.44771 6.65271 6.39527 6.64522C6.02073 6.60028 5.64619 6.59279 5.27164 6.62275C4.75478 6.66021 4.24539 6.76508 3.75849 6.94486C2.97944 7.22202 2.29028 7.65649 1.69851 8.24078C1.18913 8.73517 0.792109 9.31197 0.499966 9.96367C0.222805 10.5854 0.0580105 11.2371 0.0130654 11.9113C-0.00940711 12.2034 -0.00191306 12.5031 0.0280503 12.7952C0.0655046 13.1997 0.140407 13.6042 0.267752 13.9937C0.627312 15.1099 1.27153 16.0313 2.1929 16.7579C2.2828 16.8328 2.37268 16.9152 2.48505 16.9601C2.52999 17.0051 2.58243 17.0425 2.62738 17.0875C2.77719 17.1998 2.93449 17.2972 3.09929 17.3796C4.12554 17.889 5.21172 18.0987 6.35781 17.9564C7.841 17.7766 9.07699 17.1174 10.0508 15.9863C10.9647 14.9226 11.4141 13.6716 11.4216 12.2709C11.4366 10.2708 11.4216 8.27074 11.4216 6.26319C11.4216 6.21825 11.3917 6.15083 11.4441 6.12086C11.489 6.09839 11.5265 6.15832 11.564 6.18079C12.3055 6.6677 13.1146 7.02726 13.9835 7.22202C14.4929 7.33438 15.0023 7.40929 15.5191 7.40929C15.6839 7.40929 15.7064 7.4018 15.7064 7.237C15.7064 6.52537 15.6689 4.58524 15.6689 4.39797L15.6764 4.3755Z" fill="white"/>
</svg>
