<svg width="18" height="16" viewBox="0 0 18 16" fill="none" xmlns="http://www.w3.org/2000/svg">
<path d="M17.3571 0.928574H0.642857C0.287277 0.928574 0 1.21585 0 1.57143V14.4286C0 14.7842 0.287277 15.0714 0.642857 15.0714H17.3571C17.7127 15.0714 18 14.7842 18 14.4286V1.57143C18 1.21585 17.7127 0.928574 17.3571 0.928574ZM16.5536 3.15447V13.625H1.44643V3.15447L0.891964 2.72255L1.68147 1.70804L2.54129 2.37701H15.4607L16.3205 1.70804L17.11 2.72255L16.5536 3.15447ZM15.4607 2.375L9 7.39732L2.53929 2.375L1.67946 1.70603L0.889955 2.72054L1.44442 3.15246L8.30692 8.48817C8.50428 8.64149 8.74707 8.72472 8.99699 8.72472C9.2469 8.72472 9.4897 8.64149 9.68705 8.48817L16.5536 3.15447L17.108 2.72255L16.3185 1.70804L15.4607 2.375Z" fill="url(#paint0_linear_238_1324)"/>
<defs>
<linearGradient id="paint0_linear_238_1324" x1="0.608252" y1="8.39286" x2="18.1958" y2="8.39286" gradientUnits="userSpaceOnUse">
<stop stop-color="#02B5D3"/>
<stop offset="1" stop-color="#E6F0CD"/>
</linearGradient>
</defs>
</svg>
