<svg width="18" height="14" viewBox="0 0 18 14" fill="none" xmlns="http://www.w3.org/2000/svg">
<path d="M17.625 2.665C17.415 1.8925 16.8075 1.2775 16.035 1.075C14.6325 0.700001 9 0.700001 9 0.700001C9 0.700001 3.36751 0.700001 1.96501 1.075C1.19251 1.285 0.5775 1.8925 0.375 2.665C0 4.0675 0 7 0 7C0 7 0 9.9325 0.375 11.335C0.585 12.1075 1.19251 12.7225 1.96501 12.925C3.36751 13.3 9 13.3 9 13.3C9 13.3 14.6325 13.3 16.035 12.925C16.8075 12.715 17.4225 12.1075 17.625 11.335C18 9.9325 18 7 18 7C18 7 18 4.075 17.625 2.665ZM7.2 9.7V4.3L11.88 7L7.2 9.7Z" fill="white"/>
</svg>
