<svg width="18" height="18" viewBox="0 0 18 18" fill="none" xmlns="http://www.w3.org/2000/svg">
<path fill-rule="evenodd" clip-rule="evenodd" d="M15.357 2.61302C13.6697 0.933223 11.43 0 9.04095 0C4.121 0 0.119334 4.00166 0.119334 8.92161C0.119334 10.4969 0.529957 12.0274 1.31386 13.3787L0.0446777 18L4.77052 16.7607C6.07703 17.4699 7.54032 17.8432 9.03348 17.8432C13.9534 17.8432 17.9551 13.8416 17.9551 8.92161C17.9551 6.54002 17.0293 4.30029 15.3421 2.61302H15.357ZM9.04841 16.3351C7.71951 16.3351 6.41299 15.9768 5.27072 15.3049L5.00196 15.1406L2.19483 15.8797L2.9414 13.1472L2.76222 12.8635C2.02311 11.6839 1.62743 10.3177 1.62743 8.92161C1.62743 4.83783 4.95717 1.50809 9.04841 1.50809C11.0268 1.50809 12.8933 2.28453 14.2894 3.68063C15.693 5.0842 16.4619 6.94318 16.4619 8.92161C16.4619 13.0054 13.1322 16.3351 9.04841 16.3351ZM13.1173 10.7806C12.8933 10.6686 11.7958 10.1311 11.5942 10.0564C11.3927 9.98175 11.2434 9.94442 11.094 10.1684C10.9447 10.3924 10.5192 10.8926 10.3848 11.0419C10.2579 11.1912 10.1235 11.2061 9.89951 11.0942C9.67554 10.9822 8.95882 10.7507 8.10772 9.98922C7.44327 9.39942 6.99532 8.66777 6.8684 8.4438C6.74148 8.21982 6.85347 8.10037 6.96546 7.98839C7.06252 7.89133 7.18943 7.72708 7.30142 7.60017C7.4134 7.47325 7.45074 7.37619 7.52539 7.22688C7.60005 7.07756 7.56272 6.95064 7.51046 6.83866C7.4582 6.72667 7.01025 5.6292 6.82361 5.18125C6.64443 4.74824 6.45779 4.80796 6.3234 4.8005C6.19648 4.8005 6.04717 4.79303 5.89785 4.79303C5.74854 4.79303 5.50963 4.84529 5.30059 5.06927C5.09901 5.29324 4.52415 5.83078 4.52415 6.92825C4.52415 8.02571 5.32299 9.08586 5.43497 9.23517C5.54696 9.38449 7.01025 11.6317 9.24252 12.6022C9.77259 12.8337 10.1907 12.9681 10.5117 13.0726C11.0492 13.2443 11.5345 13.2219 11.9153 13.1622C12.3408 13.095 13.2367 12.6246 13.4234 12.102C13.61 11.5794 13.61 11.1389 13.5503 11.0419C13.4906 10.9448 13.3487 10.8926 13.1247 10.7806H13.1173Z" fill="url(#paint0_linear_238_1320)"/>
<defs>
<linearGradient id="paint0_linear_238_1320" x1="0.649902" y1="9.5" x2="18.1499" y2="9.5" gradientUnits="userSpaceOnUse">
<stop stop-color="#02B5D3"/>
<stop offset="1" stop-color="#E6F0CD"/>
</linearGradient>
</defs>
</svg>
