<svg width="18" height="16" viewBox="0 0 18 16" fill="none" xmlns="http://www.w3.org/2000/svg">
<path d="M5.655 15.3125C12.45 15.3125 16.1625 9.6875 16.1625 4.805C16.1625 4.6475 16.1625 4.4825 16.155 4.325C16.875 3.8075 17.505 3.155 18 2.4125C17.34 2.705 16.6275 2.9075 15.8775 2.9975C16.6425 2.54 17.2275 1.82 17.505 0.9575C16.7925 1.3775 16.005 1.685 15.1575 1.8575C14.4825 1.1375 13.5225 0.6875 12.465 0.6875C10.425 0.6875 8.775 2.345 8.775 4.3775C8.775 4.67 8.805 4.9475 8.8725 5.2175C5.805 5.06 3.0825 3.59 1.26 1.3625C0.945 1.91 0.757502 2.54 0.757502 3.215C0.757502 4.4975 1.41 5.63 2.4 6.29C1.7925 6.275 1.2225 6.1025 0.727501 5.825C0.727501 5.84 0.727501 5.855 0.727501 5.87C0.727501 7.655 2.0025 9.155 3.69 9.4925C3.3825 9.575 3.0525 9.62 2.715 9.62C2.475 9.62 2.2425 9.5975 2.0175 9.5525C2.49 11.0225 3.8475 12.0875 5.4675 12.1175C4.2 13.1075 2.61 13.7 0.877499 13.7C0.577499 13.7 0.285 13.685 0 13.6475C1.635 14.6975 3.5775 15.305 5.6625 15.305" fill="white"/>
</svg>
