<svg width="235" height="11" viewBox="0 0 235 11" fill="none" xmlns="http://www.w3.org/2000/svg">
<path d="M4.41819 10H7.23819V3.184H11.0902V1.072H0.578188V3.184H4.41819V10ZM16.1019 3.1H20.3379C21.1539 3.1 21.4659 3.496 21.4659 3.964V3.976C21.4659 4.468 21.1419 4.852 20.3379 4.852H16.1019V3.1ZM16.1019 6.832H19.7499C21.1299 6.832 21.6099 7.312 21.6099 8.404V9.436C21.6099 9.76 21.6579 9.892 21.7419 10H24.5859V9.94C24.5019 9.796 24.4179 9.568 24.4179 8.848V7.54C24.4179 6.388 23.6379 5.752 22.7259 5.488C23.3139 5.296 24.3819 4.816 24.3819 3.532V3.388C24.3819 2.104 23.4819 1.072 20.5059 1.072H13.3059V10H16.1019V6.832ZM33.986 6.352H30.602L32.258 3.004L33.986 6.352ZM35.858 10H38.87L34.094 1.072H30.47L25.958 10H28.802L29.606 8.368H35.018L35.858 10ZM43.3573 1.072H40.5613V10H43.3573V1.072ZM45.9215 1.072V10H48.6815V4.084L54.7415 10H57.5015V1.072H54.7415V6.688L49.0415 1.072H45.9215ZM62.6987 7.9H59.8067V10H62.6987V7.9ZM70.6248 10.156C75.7248 10.156 76.6128 7.66 76.6128 6.532V6.4H73.6488C73.5768 6.604 73.2888 7.984 70.3968 7.984C67.7928 7.984 67.0848 6.592 67.0848 5.536V5.392C67.0848 4.276 67.6968 3.076 70.3728 3.076C73.2048 3.076 73.5648 4.324 73.6368 4.564H76.6008V4.432C76.6008 3.388 75.7968 0.916 70.6248 0.916H70.1328C64.8528 0.916 64.1568 3.712 64.1568 5.332V5.68C64.1568 7.264 64.9608 10.156 70.1328 10.156H70.6248ZM84.7112 0.916C79.0592 0.916 78.4232 3.736 78.4232 5.332V5.692C78.4232 7.264 79.0592 10.156 84.7112 10.156H85.2272C90.8552 10.156 91.5032 7.264 91.5032 5.692V5.332C91.5032 3.736 90.8432 0.916 85.2272 0.916H84.7112ZM88.5752 5.584C88.5752 6.616 87.9632 7.984 84.9632 7.984C81.9392 7.984 81.3512 6.58 81.3512 5.56V5.416C81.3512 4.396 81.8912 3.076 84.9632 3.076C87.9872 3.076 88.5752 4.396 88.5752 5.416V5.584ZM93.7059 10H96.3939V3.82L99.9099 10H101.41L104.926 3.82V10H107.686V1.072H103.858L100.762 6.628L97.6779 1.072H93.7059V10ZM110.257 10H112.945V3.82L116.461 10H117.961L121.477 3.82V10H124.237V1.072H120.409L117.313 6.628L114.229 1.072H110.257V10ZM129.605 1.072H126.809V10H129.605V1.072ZM135.661 10H138.481V3.184H142.333V1.072H131.821V3.184H135.661V10ZM145.372 7.9H142.48V10H145.372V7.9ZM154.94 6.352H151.556L153.212 3.004L154.94 6.352ZM156.812 10H159.824L155.048 1.072H151.424L146.912 10H149.756L150.56 8.368H155.972L156.812 10ZM166.908 10.156C172.008 10.156 172.896 7.66 172.896 6.532V6.4H169.932C169.86 6.604 169.572 7.984 166.68 7.984C164.076 7.984 163.368 6.592 163.368 5.536V5.392C163.368 4.276 163.98 3.076 166.656 3.076C169.488 3.076 169.848 4.324 169.92 4.564H172.884V4.432C172.884 3.388 172.08 0.916 166.908 0.916H166.416C161.136 0.916 160.44 3.712 160.44 5.332V5.68C160.44 7.264 161.244 10.156 166.416 10.156H166.908ZM175.067 10H177.863V6.484H183.863V10H186.659V1.072H183.863V4.324H177.863V1.072H175.067V10ZM192.024 1.072H189.228V10H192.024V1.072ZM194.588 1.072V10H204.116V7.924H197.348V6.46H203.84V4.42H197.348V3.1H203.996V1.072H194.588ZM213.771 10L218.091 1.072H215.187L212.103 7.636L208.815 1.072H205.647L210.291 10H213.771ZM219.828 1.072V10H229.356V7.924H222.588V6.46H229.08V4.42H222.588V3.1H229.236V1.072H219.828ZM234.343 7.9H231.451V10H234.343V7.9Z" fill="url(#paint0_linear_238_1328)"/>
<defs>
<linearGradient id="paint0_linear_238_1328" x1="7.94107" y1="5.44444" x2="237.556" y2="5.44449" gradientUnits="userSpaceOnUse">
<stop stop-color="#02B5D3"/>
<stop offset="1" stop-color="#E6F0CD"/>
</linearGradient>
</defs>
</svg>
