<svg width="128" height="32" viewBox="0 0 128 32" fill="none" xmlns="http://www.w3.org/2000/svg">
<g clip-path="url(#clip0_238_1291)">
<path d="M32.5491 32H0V0H32.5491V32ZM0.735036 31.2774H31.8141V0.722636H0.735036V31.2774Z" fill="white"/>
<path d="M64.3717 32H31.814V0H64.3631V32H64.3717ZM32.5576 31.2774H63.6453V0.722636H32.549V31.2774H32.5576Z" fill="white"/>
<path d="M96.1858 32H63.6367V0H96.1858V32ZM64.3718 31.2774H95.4594V0.722636H64.3718V31.2774Z" fill="white"/>
<path d="M128 32H95.4509V0H128V32ZM96.186 31.2774H127.274V0.722636H96.186V31.2774Z" fill="white"/>
<path d="M9.0626 16.1105V15.8215C9.0626 13.4665 10.4462 10.4995 16.0325 10.4995H16.5427C22.1981 10.4995 23.3482 12.8799 23.3482 14.4272V14.4867H19.2234C19.111 14.2147 18.7305 13.356 16.2919 13.356C13.8533 13.356 13.1442 14.6312 13.1442 15.8895V16.034C13.1442 17.2412 13.8447 18.6525 16.2919 18.6525C18.7391 18.6525 19.1888 17.6918 19.2666 17.3603H16.1622V15.3709H23.478V21.3305H20.6935C20.607 20.9564 20.3735 20.3103 20.166 19.9702C19.8287 20.3443 18.5143 21.492 15.7471 21.492H15.4963C10.5067 21.492 9.05396 18.542 9.05396 16.102L9.0626 16.1105Z" fill="white"/>
<path d="M54.6953 18.746V20.3953C54.6953 20.9564 54.7558 21.1095 54.8596 21.271V21.339H50.8212C50.778 21.2795 50.7174 21.084 50.7174 20.6759V19.7747C50.7174 18.3975 50.2332 17.9979 48.6939 17.9979H45.2522V21.339H41.3176V10.6695H50.0775C54.0467 10.6695 54.6088 12.1913 54.6088 13.577V13.6791C54.6088 15.2009 53.4155 15.9745 52.1702 16.204C53.5711 16.4336 54.6953 17.0797 54.6953 18.7375V18.746ZM49.256 15.2179C50.2937 15.2179 50.5272 14.7588 50.5272 14.2997V14.2742C50.5272 13.8151 50.2937 13.3985 49.256 13.3985H45.2436V15.2179H49.256Z" fill="white"/>
<path d="M77.9397 21.339V10.6695H81.8743V21.3305H77.9397V21.339Z" fill="white"/>
<path d="M111.302 10.6695C117.208 10.6695 118.531 13.288 118.531 15.7024V16.136C118.531 18.576 117.338 21.339 111.302 21.339H104.911V10.6695H111.302ZM110.835 18.5845C114.069 18.5845 114.423 17.0967 114.423 16.017V15.932C114.423 14.9033 114.043 13.407 110.835 13.407H108.854V18.5845H110.835Z" fill="white"/>
<path d="M111.302 10.6695C117.208 10.6695 118.531 13.2965 118.531 15.7024V16.136C118.531 18.576 117.338 21.339 111.302 21.339H104.911V10.6695H111.302ZM110.835 18.5845C114.069 18.5845 114.423 17.0967 114.423 16.017V15.932C114.423 14.9033 114.043 13.407 110.835 13.407H108.854V18.5845H110.835Z" fill="white"/>
</g>
<defs>
<clipPath id="clip0_238_1291">
<rect width="128" height="32" fill="white"/>
</clipPath>
</defs>
</svg>
